<svg width="16" height="14" viewBox="0 0 16 14" fill="none" xmlns="http://www.w3.org/2000/svg">
<path d="M12.0475 4.27893C11.7567 4.11276 11.3828 4.11276 11.0504 4.27893L8.72404 5.64985L7.1454 6.52226L4.86053 7.89317C4.56973 8.05935 4.19585 8.05935 3.8635 7.89317L2.07715 6.81306C1.78635 6.64688 1.57863 6.31454 1.57863 5.94065V3.8635C1.57863 3.53116 1.74481 3.19881 2.07715 2.9911L3.8635 1.95252C4.1543 1.78635 4.52819 1.78635 4.86053 1.95252L6.64688 3.03264C6.93769 3.19881 7.1454 3.53116 7.1454 3.90504V5.27596L8.72404 4.36202V2.94955C8.72404 2.61721 8.55786 2.28487 8.22552 2.07715L4.90208 0.124629C4.61128 -0.041543 4.23739 -0.041543 3.90504 0.124629L0.498516 2.11869C0.166172 2.28487 0 2.61721 0 2.94955V6.8546C0 7.18694 0.166172 7.51929 0.498516 7.727L3.8635 9.67953C4.1543 9.8457 4.52819 9.8457 4.86053 9.67953L7.1454 8.35015L8.72404 7.4362L11.0089 6.10682C11.2997 5.94065 11.6736 5.94065 12.0059 6.10682L13.7923 7.1454C14.0831 7.31157 14.2908 7.64392 14.2908 8.0178V10.095C14.2908 10.4273 14.1246 10.7596 13.7923 10.9674L12.0475 12.0059C11.7567 12.1721 11.3828 12.1721 11.0504 12.0059L9.26409 10.9674C8.97329 10.8012 8.76558 10.4688 8.76558 10.095V8.76558L7.18694 9.67953V11.0504C7.18694 11.3828 7.35312 11.7151 7.68546 11.9228L11.0504 13.8754C11.3412 14.0415 11.7151 14.0415 12.0475 13.8754L15.4125 11.9228C15.7033 11.7567 15.911 11.4243 15.911 11.0504V7.10386C15.911 6.77151 15.7448 6.43917 15.4125 6.23145L12.0475 4.27893Z" fill="#8247E5"/>
</svg>
